<?xml version="1.0" encoding="UTF-8" standalone="no"?>
<!-- Created with Inkscape (http://www.inkscape.org/) -->

<svg
   version="1.1"
   id="svg2"
   width="2666.6667"
   height="2666.6667"
   viewBox="0 0 2666.6667 2666.6667"
   sodipodi:docname="vecteezy_free-vector-flat-graphic-designer-logo-collection_18716372.eps"
   xmlns:inkscape="http://www.inkscape.org/namespaces/inkscape"
   xmlns:sodipodi="http://sodipodi.sourceforge.net/DTD/sodipodi-0.dtd"
   xmlns="http://www.w3.org/2000/svg"
   xmlns:svg="http://www.w3.org/2000/svg">
  <defs
     id="defs6">
    <clipPath
       clipPathUnits="userSpaceOnUse"
       id="clipPath20">
      <path
         d="M 5004.05,17278.1 H 14995.9 V 7286.2 H 5004.05 Z"
         clip-rule="evenodd"
         id="path18" />
    </clipPath>
  </defs>
  <sodipodi:namedview
     id="namedview4"
     pagecolor="#ffffff"
     bordercolor="#000000"
     borderopacity="0.25"
     inkscape:showpageshadow="2"
     inkscape:pageopacity="0.0"
     inkscape:pagecheckerboard="0"
     inkscape:deskcolor="#d1d1d1" />
  <g
     id="g8"
     inkscape:groupmode="layer"
     inkscape:label="ink_ext_XXXXXX"
     transform="matrix(1.3333333,0,0,-1.3333333,0,2666.6667)">
    <g
       id="g10"
       transform="scale(0.1)">
      <path
         d="M 20000,0 H 0 V 20000 H 20000 V 0"
         style="fill:#fefefe;fill-opacity:1;fill-rule:evenodd;stroke:none"
         id="path12" />
      <g
         id="g14">
        <g
           id="g16"
           clip-path="url(#clipPath20)">
          <path
             d="m 13664.4,9046.9 c -770.3,-686.7 -1782.7,-1104.8 -2896.3,-1104.8 -1324.92,0 -2513.38,594.2 -3310.09,1527.4 695.47,-660.3 1633.03,-1065.3 2667.39,-1065.3 788,0 1523,237.7 2134.9,642.7 h 1395.3 8.8"
             style="fill:#369b9f;fill-opacity:1;fill-rule:evenodd;stroke:none"
             id="path22" />
          <path
             d="m 6287.15,12282.2 c 0,2464.9 1998.38,4463.3 4463.35,4463.3 1188.5,0 2271.3,-466.6 3072.4,-1223.7 -915.6,1078.4 -2280.1,1760.7 -3807.5,1760.7 -2759.87,0 -4995.94,-2236.1 -4995.94,-4995.9 0,-2759.9 2236.07,-4996 4995.94,-4996 1523,0 2887.5,682.3 3807.5,1760.7 -801.1,-757.1 -1879.5,-1223.7 -3072.4,-1223.7 -2464.97,0 -4463.35,1998.4 -4463.35,4463.3 v -8.7"
             style="fill:#7dd3d6;fill-opacity:1;fill-rule:evenodd;stroke:none"
             id="path24" />
          <path
             d="m 10671.3,11965.2 959.5,-1258.9 2830.3,2002.8 198.1,-259.7 321.3,1104.8 -1153.2,-8.8 189.3,-242.1 -2266.9,-1677 -937.6,1210.5 -3640.2,-2971.2 c 44.02,-66 -48.42,61.6 0,0 3495,2104 0,0 3495,2104 l 4.4,-4.4"
             style="fill:#7dd3d6;fill-opacity:1;fill-rule:evenodd;stroke:none"
             id="path26" />
          <path
             d="m 12269.1,15517.4 c -611.9,405 -1346.9,642.7 -2134.9,642.7 -1034.35,0 -1971.92,-405 -2667.39,-1065.3 796.71,937.6 1985.18,1527.4 3310.09,1527.4 1113.6,0 2126,-418.1 2896.3,-1104.8 h -1395.3 -8.8"
             style="fill:#369b9f;fill-opacity:1;fill-rule:evenodd;stroke:none"
             id="path28" />
          <path
             d="M 9381.56,13232.9 H 7568.05 v -2764.3 l 1813.51,1479 v 1285.3"
             style="fill:#a2a2a1;fill-opacity:1;fill-rule:evenodd;stroke:none"
             id="path30" />
          <path
             d="m 9033.82,10728.3 c -488.59,-294.9 -977.18,-589.8 -1465.77,-884.7 v -176.1 l 44.02,-44 c 497.39,-471 1109.23,-792.3 1769.49,-928.8 v 2236.1 c -114.45,-70.4 -233.29,-140.8 -347.74,-211.3 v 8.8"
             style="fill:#a2a2a1;fill-opacity:1;fill-rule:evenodd;stroke:none"
             id="path32" />
          <path
             d="M 9707.29,11133.3 V 8650.7 c 140.85,-17.6 281.7,-26.4 426.91,-26.4 479.8,0 950.8,92.5 1391,272.9 v 1593.5 l -906.8,1188.4 c -303.7,-180.5 -607.4,-365.3 -906.71,-545.8 h -4.4"
             style="fill:#4c4d4e;fill-opacity:1;fill-rule:evenodd;stroke:none"
             id="path34" />
          <path
             d="m 9707.29,12211.7 1144.41,937.6 669.1,-867.1 v 1558.2 H 9707.29 v -1628.7"
             style="fill:#4c4d4e;fill-opacity:1;fill-rule:evenodd;stroke:none"
             id="path36" />
          <path
             d="M 11850.9,14434.6 V 11974 l 1813.5,1342.6 v 83.6 l -281.7,360.9 281.7,4.4 v 669.1 h -1813.5"
             style="fill:#100f0d;fill-opacity:1;fill-rule:evenodd;stroke:none"
             id="path38" />
          <path
             d="m 13664.4,11881.6 -1813.5,-1285.3 v -1545 c 101.3,52.8 202.5,114.4 299.3,176.1 l 52.9,35.2 h 1461.3 v 2619"
             style="fill:#100f0d;fill-opacity:1;fill-rule:evenodd;stroke:none"
             id="path40" />
        </g>
      </g>
      <path
         d="m 6081.84,3580.5 c -164.76,-61.1 -475.28,-141.9 -785.34,-141.9 -429.81,0 -739.69,115.5 -956.17,338.8 -215.89,219.6 -334.01,548.4 -332.63,919.5 2.75,840.2 572.87,1318 1343.14,1318 303.74,0 537.49,-61.9 653.87,-121.3 l -111.2,-457.5 c -130.4,60.3 -288.64,107.2 -547.26,107.2 -443.39,0 -780.5,-267.6 -780.5,-817.1 0,-521.6 306.55,-827 741.97,-827 120.31,0 217.68,15 260.2,35.6 v 530.7 h -363.64 v 445.6 h 877.56 V 3580.5"
         style="fill:#66c768;fill-opacity:1;fill-rule:nonzero;stroke:none"
         id="path42" />
      <path
         d="m 6489.09,4693.5 c 0,269.2 -4.54,446.6 -13.96,604.6 h 456.29 l 19.37,-339.5 h 13.03 c 87.74,268.3 295.57,380.7 461.04,380.7 49.02,0 73.95,-1.3 113.47,-10.6 v -536.2 c -41.13,9.3 -83.95,15.9 -143.57,15.9 -195.05,0 -328.3,-111.1 -364.03,-289.6 -6.66,-36.2 -9.84,-80.6 -9.84,-126.9 v -928 h -531.8 v 1229.6"
         style="fill:#66c768;fill-opacity:1;fill-rule:nonzero;stroke:none"
         id="path44" />
      <path
         d="m 8684.65,4331.3 c -279.37,1.6 -495.39,-70.7 -495.39,-289.1 0,-147.7 89.99,-219.6 210.81,-219.6 129.88,0 239.82,93.2 274.7,210.7 8.08,29.6 9.88,65 9.88,97.4 z m 64.35,-867.4 -31.31,182.3 h -11.29 c -111.41,-146.1 -285.74,-223.5 -487.85,-223.5 -347.78,0 -552.11,268.1 -552.11,561.1 0,477.8 398.05,704.3 1002.38,703.5 v 23.4 c 0,97.5 -48.79,236.8 -312.78,236.2 -174.1,0 -357.05,-63.6 -470.76,-136.9 l -97.76,364.9 c 118.97,73.1 351.78,164.4 663.9,164.4 568.66,0 748.52,-360.9 748.52,-791.6 v -639.6 c 0,-174.9 8.67,-341.2 27.18,-444.2 H 8749"
         style="fill:#66c768;fill-opacity:1;fill-rule:nonzero;stroke:none"
         id="path46" />
      <path
         d="m 10150.6,4249 c 0,-42.8 3.2,-82.7 10.7,-119 34.4,-152.6 157,-270.4 310.4,-270.4 229.3,0 366.4,207.5 366.4,518.8 0,291.6 -121.5,514.4 -357.9,514.4 -150.2,0 -285.3,-121.9 -317.5,-288.3 -7.9,-32.5 -12.1,-67.2 -12.1,-101.9 z m -531.08,432.7 c 0,241.1 -6.61,444.4 -13.96,616.4 h 461.54 l 24.6,-256.8 h 7 c 126.6,193.7 320.9,298 568.8,298 373.7,0 709.7,-349 709.7,-934.2 0,-668.8 -396.8,-982.4 -776.8,-982.4 -204,0 -367.3,88.1 -442.8,209.2 h -7 v -910 h -531.08 v 1959.8"
         style="fill:#66c768;fill-opacity:1;fill-rule:nonzero;stroke:none"
         id="path48" />
      <path
         d="m 11706.6,6124.5 h 531.8 V 5077.2 h 7 c 55.6,80.3 123.6,141.4 207.9,189.4 78.8,45.9 178,72.7 276.5,72.7 339,0 598.4,-252.2 598.4,-805.3 V 3463.9 h -531.8 v 1007.6 c 0,241.4 -77.4,406.4 -274.4,406.4 -141.7,0 -228.6,-97.1 -266.4,-201.4 -13.3,-34.2 -17.2,-83.3 -17.2,-124.6 v -1088 h -531.8 v 2660.6"
         style="fill:#66c768;fill-opacity:1;fill-rule:nonzero;stroke:none"
         id="path50" />
      <path
         d="m 13751.7,3463.9 v 1834.2 h 531.8 V 3463.9 Z m 546.8,2343.4 c 0.7,-158.8 -108.6,-284.8 -285.5,-284.8 -168.1,0 -277,126 -276.3,284.8 -0.7,162.9 110.7,285.5 281.1,285.5 171.6,0 278.6,-122 280.7,-285.5"
         style="fill:#66c768;fill-opacity:1;fill-rule:nonzero;stroke:none"
         id="path52" />
      <path
         d="m 15989.6,3509.9 c -95.6,-47.5 -273.8,-85.4 -475.7,-85.4 -552,0 -903.5,362.8 -903.5,938.8 0,536.3 341.6,974.6 976.6,974.6 140.5,0 294.5,-27.4 405.3,-72.4 l -82.7,-423.6 c -64.1,30.7 -157.3,58.4 -297.2,58.4 -280.8,0 -460.9,-214 -458.8,-514 0,-336.8 210.5,-515.5 467.5,-515.5 126.8,0 224.3,23.9 305.9,59.6 l 62.6,-420.5"
         style="fill:#66c768;fill-opacity:1;fill-rule:nonzero;stroke:none"
         id="path54" />
    </g>
  </g>
</svg>
